<svg width="512" height="512" viewBox="0 0 512 512" xmlns="http://www.w3.org/2000/svg">
  <rect width="512" height="512" fill="#0B3124"/>
  <g transform="translate(105, 105) scale(1.86)">
    <path d="M55.9448 27.5066C65.4171 14.2636 83.0246 5.60278 100.811 5.60278C114.687 5.60278 127.994 10.986 137.806 20.5683C147.618 30.1506 153.131 43.1472 153.133 56.6996C153.133 83.6964 131.694 105.921 104.547 107.796"
      stroke="#C6AA57" stroke-width="11.2054" stroke-linecap="round" stroke-linejoin="round" fill="none"/>
    <path d="M17.5102 107.415C7.34312 95.0442 5.60254 82.6136 20.1547 67.5311C35.4389 53.8978 44.2389 47.451 46.5846 43.5664C48.9303 47.451 57.8722 53.8978 73.1564 67.5311C87.0063 79.887 86.1398 95.0367 75.9727 107.415M17.5102 107.415H13.6032M17.5102 107.415H75.9727M75.9727 107.415H79.4091M13.6032 107.415H5.60254M13.6032 107.415V148.83C13.902 153.82 13.6032 156.151 22.6498 155.494H46.4427M79.4091 107.415H87.6189M79.4091 107.415L79.4016 149.592C80.2756 156.368 74.8821 155.18 71.4308 155.494H46.4352L46.6966 139.552"
      stroke="#C6AA57" stroke-width="11.2054" stroke-linecap="round" stroke-linejoin="round" fill="none"/>
    <path d="M98.9736 43.5664V62.2496L110.187 69.7199"
      stroke="#C6AA57" stroke-width="11.2054" stroke-linecap="round" stroke-linejoin="round" fill="none"/>
  </g>
</svg>
